<svg xmlns="http://www.w3.org/2000/svg" width="1099" height="954" viewBox="0 0 1099 954">
<g>
<path d="M 87.70 948.38 C72.17,945.50 62.82,940.36 50.10,927.72 C41.39,919.06 37.19,912.62 33.32,901.99 C30.87,895.27 30.60,893.17 30.60,881.50 C30.61,869.58 30.88,867.71 33.78,859.00 C38.09,846.09 43.07,837.93 52.19,828.83 C61.85,819.19 72.22,813.72 86.09,810.95 C91.27,809.91 96.88,809.05 98.56,809.03 C103.37,808.98 117.65,805.07 124.88,801.83 C140.40,794.87 157.89,779.89 168.15,764.77 C180.51,746.58 187.47,720.19 185.03,700.76 C181.27,670.82 187.87,649.58 206.27,632.36 C220.87,618.71 230.56,614.25 252.57,611.06 C267.55,608.90 281.97,603.54 294.70,595.41 C300.60,591.64 314.21,579.05 317.39,574.42 C332.71,552.09 336.33,544.76 339.62,529.37 C341.66,519.80 341.86,504.14 340.06,494.00 C339.13,488.71 338.93,482.38 339.40,472.50 C340.45,450.12 337.55,435.32 328.75,418.24 C315.66,392.81 295.35,372.02 273.92,362.12 C265.54,358.24 244.39,353.02 236.94,352.99 C233.70,352.97 220.44,349.66 215.84,347.72 C210.39,345.42 201.24,339.37 194.79,333.80 C185.54,325.82 176.91,311.30 173.60,298.17 C172.37,293.32 172.00,286.64 171.99,269.67 C171.98,249.36 171.77,246.68 169.50,237.74 C164.75,219.10 160.05,210.22 145.13,191.67 C122.74,163.81 102.80,153.05 67.00,149.48 C39.54,146.75 16.37,127.70 7.56,100.62 C5.38,93.90 5.00,90.93 5.00,80.42 C5.00,70.08 5.40,66.85 7.47,60.30 C14.42,38.41 31.30,21.57 55.00,12.88 C60.77,10.77 63.13,10.51 76.00,10.55 C92.89,10.61 99.96,12.50 110.83,19.83 C122.00,27.37 131.94,39.22 137.82,52.00 C143.06,63.38 143.24,64.48 144.06,90.50 C144.50,104.25 145.37,117.53 146.00,120.00 C146.63,122.47 147.39,125.97 147.68,127.76 C147.98,129.55 148.62,131.27 149.11,131.57 C149.60,131.87 150.00,132.99 150.00,134.06 C150.00,135.13 151.12,138.34 152.50,141.19 C153.88,144.04 155.00,146.77 155.00,147.26 C155.00,148.80 163.63,161.56 169.82,169.18 C176.37,177.23 187.18,187.68 194.25,192.79 C201.71,198.19 216.30,205.22 225.50,207.86 C231.93,209.70 244.23,212.00 247.70,212.00 C249.46,212.00 251.94,212.40 253.20,212.90 C254.47,213.39 257.52,214.37 260.00,215.08 C281.84,221.30 302.78,243.01 308.46,265.29 C312.54,281.31 313.32,286.99 312.18,292.28 C310.29,301.08 309.90,309.24 311.10,315.00 C311.72,318.03 312.58,322.52 313.00,325.00 C315.82,341.64 321.78,352.29 344.79,381.83 C354.35,394.10 373.73,407.01 389.00,411.29 C400.52,414.51 402.84,415.00 406.62,415.02 C411.45,415.04 426.26,417.62 430.98,419.26 C441.15,422.79 454.21,431.52 461.04,439.34 C471.35,451.16 478.87,468.72 479.77,483.10 C481.14,505.11 465.57,532.48 445.00,544.21 C435.17,549.81 433.41,550.70 431.00,551.26 C429.62,551.58 425.80,552.57 422.50,553.46 C419.20,554.34 414.02,555.48 411.00,555.98 C391.27,559.26 382.41,562.42 369.50,570.78 C349.12,583.99 332.47,606.95 326.19,630.50 C322.73,643.46 322.54,648.98 324.58,677.42 C325.21,686.22 323.63,697.28 320.78,704.00 C316.49,714.11 310.45,723.54 303.58,730.84 C294.60,740.39 276.86,750.51 267.28,751.54 C257.93,752.55 248.43,754.23 243.50,755.74 C222.40,762.22 209.91,769.74 195.81,784.46 C183.51,797.31 175.93,810.09 171.78,825.00 C166.35,844.48 166.22,846.52 169.02,868.65 C171.93,891.63 165.57,911.40 150.14,927.37 C143.58,934.15 131.47,943.00 128.74,943.00 C127.97,943.00 127.00,943.33 126.60,943.73 C125.34,944.99 117.78,947.08 111.00,948.03 C98.62,949.78 95.46,949.83 87.70,948.38 ZM 542.50 948.83 C522.79,945.69 512.77,940.98 501.34,929.47 C494.63,922.73 492.34,919.55 488.52,911.70 C482.66,899.66 480.03,887.59 480.01,872.67 C479.99,852.41 485.92,837.17 499.75,821.98 C510.04,810.67 513.26,806.50 517.57,798.88 C527.62,781.12 531.86,764.33 531.95,742.00 C532.02,722.43 528.38,706.37 520.36,690.84 C514.97,680.39 511.14,675.09 500.48,663.34 C485.63,646.96 480.05,631.86 480.04,608.00 C480.03,587.09 485.12,572.69 497.27,559.28 C514.82,539.92 525.29,520.43 530.20,498.00 C532.03,489.63 532.31,465.20 530.67,457.00 C525.86,432.90 517.72,416.67 500.06,396.01 C485.93,379.47 479.99,363.18 480.02,341.00 C480.04,321.43 484.47,308.00 495.10,295.29 C519.32,266.31 524.96,255.70 530.56,228.50 C532.44,219.34 532.41,198.64 530.49,188.63 C526.18,166.09 517.33,149.01 500.58,130.91 C486.12,115.29 479.71,98.26 479.73,75.50 C479.75,53.73 485.23,39.83 499.50,25.41 C508.47,16.34 516.51,11.39 528.00,7.86 C541.25,3.78 564.36,4.94 576.00,10.27 C588.14,15.82 598.18,24.20 605.26,34.69 C610.05,41.78 615.02,54.08 616.07,61.42 C616.55,64.76 617.40,69.92 617.97,72.89 C620.24,84.75 617.89,99.13 611.50,112.50 C606.64,122.68 604.51,125.73 596.25,134.39 C584.84,146.35 577.63,158.21 572.53,173.43 C568.38,185.80 567.16,192.29 566.35,206.48 C564.59,237.54 574.48,266.26 594.10,287.00 C610.50,304.35 616.81,318.64 618.70,342.75 C619.26,349.99 617.03,366.55 614.76,372.00 C610.68,381.78 605.50,389.52 593.00,404.50 C590.24,407.80 587.69,411.17 587.32,412.00 C586.96,412.83 585.58,414.80 584.27,416.40 C581.57,419.67 574.65,433.85 572.63,440.27 C568.21,454.24 567.24,459.23 566.44,472.03 C565.72,483.63 567.08,498.74 569.61,507.10 C572.39,516.28 576.23,526.29 578.78,531.00 C582.47,537.81 591.51,551.00 595.57,555.50 C608.43,569.77 613.54,580.01 617.43,599.28 C619.97,611.87 619.12,624.54 614.80,638.50 C612.37,646.34 604.54,658.61 596.60,667.00 C591.60,672.29 580.00,688.76 580.00,690.58 C580.00,691.27 579.64,691.98 579.20,692.17 C578.52,692.44 575.76,698.73 572.00,708.50 C567.10,721.25 564.86,744.21 566.91,760.82 C568.27,771.82 573.70,788.87 578.76,798.00 C583.12,805.85 591.58,817.39 596.00,821.50 C602.66,827.68 611.51,841.79 614.21,850.50 C616.74,858.66 619.00,872.10 618.98,878.90 C618.97,886.22 616.14,903.19 614.70,904.63 C614.32,905.02 614.00,905.89 614.00,906.56 C614.00,908.27 606.44,920.59 602.22,925.76 C598.09,930.82 586.24,939.94 579.94,942.90 C573.81,945.78 569.65,946.98 562.00,948.09 C550.62,949.73 548.63,949.81 542.50,948.83 ZM 1012.50 944.03 C1011.40,943.54 1009.45,943.11 1008.17,943.07 C1004.74,942.97 993.30,938.20 987.00,934.25 C973.59,925.84 962.68,911.58 956.92,894.93 C954.95,889.25 954.60,885.53 953.92,863.00 C953.30,842.48 952.75,836.02 951.14,829.89 C945.85,809.81 938.23,795.97 923.52,779.71 C904.81,759.01 885.86,748.32 859.50,743.58 C854.55,742.69 848.25,741.48 845.50,740.90 C818.51,735.14 796.18,714.05 788.80,687.35 C786.87,680.39 786.61,676.79 786.50,655.50 C786.37,632.40 786.26,631.17 783.63,622.55 C779.85,610.17 774.66,600.76 762.92,585.00 C750.94,568.92 746.91,564.60 737.04,557.23 C723.36,547.04 706.58,540.65 689.00,538.94 C675.72,537.65 670.07,536.51 663.87,533.87 C653.59,529.50 646.45,524.65 638.74,516.79 C632.36,510.29 630.10,507.06 626.05,498.69 C623.33,493.09 620.64,485.83 620.06,482.57 C618.55,474.14 618.77,460.58 620.53,453.12 C623.83,439.13 634.23,423.51 646.26,414.47 C658.31,405.40 669.49,400.99 686.89,398.43 C716.51,394.07 737.40,381.65 754.97,357.96 C763.62,346.29 767.58,338.14 772.67,321.50 C774.28,316.22 774.47,312.33 774.24,289.09 C774.01,264.94 774.17,262.02 776.08,254.92 C781.43,235.11 801.30,213.07 820.99,205.13 C824.03,203.90 831.82,202.23 838.49,201.38 C858.37,198.85 872.28,193.64 887.00,183.21 C895.94,176.87 910.21,161.97 915.62,153.32 C921.19,144.42 926.90,130.62 927.66,124.21 L 928.23 119.39 L 921.87 115.27 C909.24,107.09 894.77,101.07 882.23,98.77 C873.73,97.21 840.53,96.65 834.00,97.96 C824.23,99.92 814.55,102.27 813.00,103.06 C812.18,103.48 809.10,104.75 806.17,105.89 C798.11,109.01 787.45,116.06 778.00,124.51 C769.16,132.42 755.67,142.00 753.39,142.00 C752.66,142.00 750.37,142.74 748.28,143.64 C739.32,147.52 737.10,148.00 725.00,148.69 C704.67,149.86 680.85,139.45 668.15,123.85 C663.00,117.53 657.87,107.71 655.38,99.44 C652.96,91.36 652.90,68.21 655.28,59.28 C658.21,48.31 663.53,39.23 671.88,30.96 C680.61,22.32 688.75,17.65 702.50,13.42 C710.51,10.95 712.99,10.65 725.00,10.70 C737.45,10.76 739.20,11.00 747.50,13.88 C758.01,17.52 767.20,23.47 778.22,33.77 C793.23,47.80 809.46,56.14 830.50,60.66 C841.24,62.96 870.36,62.98 880.59,60.68 C895.66,57.31 912.82,49.63 924.37,41.10 C927.38,38.87 934.04,33.41 939.17,28.95 C944.89,23.98 951.21,19.56 955.50,17.52 C978.30,6.69 982.34,5.60 999.50,5.69 C1010.80,5.75 1013.53,6.11 1020.37,8.41 C1042.05,15.70 1058.45,32.77 1066.58,56.50 C1069.97,66.40 1068.56,87.44 1063.92,96.24 C1063.41,97.19 1063.00,98.80 1063.00,99.82 C1063.00,102.42 1053.60,117.62 1048.65,123.00 C1040.12,132.28 1028.90,139.21 1017.00,142.54 C1013.97,143.39 1009.92,144.56 1008.00,145.13 C1006.08,145.71 1002.92,146.40 1001.00,146.66 C975.74,150.08 972.65,151.10 957.94,160.90 C940.38,172.59 922.70,196.57 917.33,215.97 C913.44,230.03 912.81,241.29 914.52,266.80 C915.15,276.17 914.24,282.10 910.36,294.00 C906.28,306.50 893.67,322.45 881.41,330.60 C871.16,337.41 856.48,342.85 848.00,342.98 C843.81,343.05 831.41,345.56 828.25,346.98 C825.31,348.31 822.31,349.51 818.00,351.06 C810.09,353.92 794.83,364.34 787.81,371.65 C781.52,378.22 770.28,394.15 766.51,401.84 C757.13,420.98 756.71,425.50 758.81,484.50 C759.73,510.32 760.43,515.54 764.10,523.74 C765.15,526.07 766.00,528.32 766.00,528.74 C766.01,529.16 767.06,531.58 768.35,534.12 C777.56,552.26 793.13,571.59 806.50,581.47 C819.61,591.16 835.34,597.28 854.00,599.95 C876.05,603.11 885.92,606.72 898.47,616.22 C907.21,622.84 913.88,631.07 919.35,642.00 C925.50,654.28 926.32,659.54 926.42,687.70 C926.48,705.63 926.82,712.22 927.75,713.15 C928.44,713.84 929.00,715.51 929.00,716.87 C929.00,718.24 930.13,722.63 931.52,726.65 C936.06,739.82 943.55,751.98 956.06,766.50 C965.99,778.02 969.91,781.70 978.40,787.45 C993.96,797.98 1007.63,802.33 1032.00,804.52 C1038.36,805.09 1043.77,806.37 1047.24,808.12 C1048.19,808.61 1049.41,809.00 1049.95,809.00 C1052.66,809.00 1066.52,818.81 1073.08,825.37 C1084.07,836.36 1087.58,842.94 1093.18,863.00 C1094.35,867.21 1093.73,883.54 1092.13,890.50 C1088.70,905.45 1075.23,923.59 1060.50,933.08 C1055.33,936.41 1045.55,941.00 1043.62,941.00 C1042.79,941.00 1041.87,941.40 1041.57,941.89 C1040.33,943.89 1016.16,945.67 1012.50,944.03 Z" fill="rgba(254,254,254,1)"/>
</g>
</svg>